<?xml version="1.0" encoding="UTF-8" standalone="no"?>
<!-- Created with Inkscape (http://www.inkscape.org/) -->

<svg
   width="600mm"
   height="300mm"
   viewBox="0 0 2267.7166 1133.8583"
   version="1.1"
   id="svg1"
   xmlns="http://www.w3.org/2000/svg"
   xmlns:svg="http://www.w3.org/2000/svg">
  <defs
     id="defs1">
    <marker
       style="overflow:visible"
       id="RoundedArrow"
       refX="0"
       refY="0"
       orient="0"
       markerWidth="1"
       markerHeight="1"
       viewBox="0 0 1 1"
       preserveAspectRatio="xMidYMid"
       markerUnits="strokeWidth">
      <path
         d="m -0.14780188,-2.873901 4.49560378,2.24780197 a 0.7,0.7 0 0 1 0,1.25219806 L -0.14780188,2.873901 A 0.8652476,0.8652476 0 0 1 -1.4,2.1 v -4.2 a 0.8652476,0.8652476 0 0 1 1.25219812,-0.773901 z"
         style="fill:context-stroke;fill-rule:evenodd;stroke:none;stroke-width:0.7"
         id="path8" />
    </marker>
  </defs>
  <g
     id="layer1"
     transform="translate(-1.4982161e-5)">
    <rect
       style="fill:#2b95bf;fill-opacity:1;stroke:#000000;stroke-width:0;stroke-linejoin:round;paint-order:fill markers stroke"
       id="rect1"
       width="2267.7166"
       height="1133.8583"
       x="1.4982161e-05"
       y="7.4910804e-06" />
    <rect
       style="fill:#ffffff;fill-opacity:1;stroke:#000000;stroke-width:75.1606;stroke-linecap:round;stroke-linejoin:round;stroke-dasharray:none;stroke-opacity:0.148499;paint-order:stroke fill markers"
       id="rect3"
       width="518.75122"
       height="389.06339"
       x="1583.0333"
       y="372.39746"
       rx="56.692913" />
    <rect
       style="fill:#ffffff;fill-opacity:1;stroke:none;stroke-width:88.9555;stroke-linecap:round;stroke-linejoin:round;stroke-dasharray:none;stroke-opacity:1;paint-order:fill markers stroke"
       id="rect3-3"
       width="833.14758"
       height="322.42786"
       x="87.640327"
       y="405.71521"
       rx="45.19207" />
    <path
       d="m 205.91636,560.78789 h -33.17373 v 37.99482 h -17.2182 v -83.68045 h 17.2182 v 31.33713 h 33.05894 v -31.33713 h 17.33299 v 83.68045 h -17.2182 z m 59.68983,-25.02379 q 4.01758,0 7.80558,0.91831 3.788,0.9183 7.6908,3.32885 4.01758,2.41055 6.88728,6.19855 2.98448,3.67322 4.82109,9.87177 1.83661,6.08376 1.83661,14.00413 0,1.37746 -0.11479,2.75492 h -41.55325 q 0.11478,3.55842 0.57394,6.19855 0.57394,2.52533 1.8366,5.05067 1.37746,2.41055 3.9028,3.788 2.64012,1.26267 6.54291,1.26267 9.18304,0 12.28232,-7.80558 h 15.84074 q -2.64012,9.18304 -10.44571,14.69286 -7.80558,5.39504 -18.25129,5.39504 -13.20062,0 -20.77663,-8.49431 -7.576,-8.6091 -7.576,-23.53154 0,-15.61117 7.69079,-24.56464 7.6908,-9.06825 21.00621,-9.06825 z m 12.28231,26.40124 q -0.57394,-6.77249 -3.788,-10.44571 -3.09928,-3.67321 -8.72389,-3.67321 -10.5605,0 -12.16753,14.11892 z m 44.88213,-47.06308 v 83.68045 h -16.07032 v -83.68045 z m 30.99281,0 v 83.68045 h -16.07032 v -83.68045 z m 42.5864,20.66184 q 14.57808,0 22.61324,8.83868 8.14995,8.72389 8.14995,24.44984 0,14.92244 -8.26474,23.64633 -8.26473,8.72389 -22.38366,8.72389 -14.3485,0 -22.49845,-8.72389 -8.14994,-8.83868 -8.14994,-24.10548 0,-15.2668 8.14994,-23.99069 8.14995,-8.83868 22.38366,-8.83868 z m 0.11479,12.97105 q -6.54291,0 -10.56049,5.50982 -4.01758,5.50982 -4.01758,14.3485 0,8.83868 4.01758,14.3485 4.01758,5.50982 10.56049,5.50982 6.42813,0 10.44571,-5.39503 4.13237,-5.50983 4.13237,-14.23371 0,-9.18304 -4.01758,-14.57808 -3.90279,-5.50982 -10.5605,-5.50982 z m 40.97938,33.28852 h 17.2182 v 15.72595 q 0,4.01758 -0.57394,6.88728 -0.45916,2.8697 -2.18098,6.08377 -1.60703,3.21406 -5.28024,5.28025 -3.55843,2.06618 -9.18304,2.75491 v -6.42813 q 5.05067,-1.03309 6.88728,-4.13237 1.8366,-3.09928 1.8366,-9.41262 h -8.72388 z m 139.46738,16.75904 h -15.49638 l -14.00413,-65.31437 -13.65977,65.31437 H 518.25473 L 494.6084,515.10226 h 18.25129 l 12.97104,62.67425 12.97105,-62.67425 h 16.98862 l 13.54499,62.78904 12.51189,-62.78904 h 18.25129 z m 60.60804,-63.01861 q 14.57808,0 22.61324,8.83868 8.14995,8.72389 8.14995,24.44984 0,14.92244 -8.26474,23.64633 -8.26474,8.72389 -22.38366,8.72389 -14.3485,0 -22.49845,-8.72389 -8.14995,-8.83868 -8.14995,-24.10548 0,-15.2668 8.14995,-23.99069 8.14995,-8.83868 22.38366,-8.83868 z m 0.11479,12.97105 q -6.54292,0 -10.5605,5.50982 -4.01758,5.50982 -4.01758,14.3485 0,8.83868 4.01758,14.3485 4.01758,5.50982 10.5605,5.50982 6.42813,0 10.44571,-5.39503 4.13237,-5.50983 4.13237,-14.23371 0,-9.18304 -4.01758,-14.57808 -3.9028,-5.50982 -10.5605,-5.50982 z m 42.70116,-11.93796 h 16.07032 v 12.16753 q 2.52534,-6.31334 7.11686,-9.75698 4.59152,-3.44364 10.10134,-3.44364 1.03309,0 1.9514,0.11479 v 16.2999 q -2.8697,-0.45916 -5.05067,-0.45916 -14.11893,0 -14.11893,14.11893 v 32.94415 h -16.07032 z m 61.06727,-21.69493 v 83.68045 h -16.07032 v -83.68045 z m 38.10965,86.32058 q -11.4788,0 -18.82523,-9.41262 -7.23164,-9.41261 -7.23164,-23.30196 0,-14.00414 7.46122,-23.41675 7.46122,-9.52741 18.59565,-9.52741 11.24923,0 17.10342,9.06825 v -29.73009 h 16.07032 v 83.68045 h -16.07032 v -6.31334 q -5.96898,8.95347 -17.10342,8.95347 z m 3.55843,-52.22854 q -5.96897,0 -9.75698,5.50982 -3.788,5.39504 -3.788,14.00414 0,8.49431 3.788,13.88935 3.78801,5.39503 9.75698,5.39503 5.96898,0 9.75698,-5.28025 3.78801,-5.28024 3.78801,-13.77456 0,-8.83867 -3.78801,-14.23371 -3.67321,-5.50982 -9.75698,-5.50982 z m 67.15102,-33.74767 v 24.10548 l -4.8211,35.46949 h -7.69079 l -4.70631,-35.46949 v -24.10548 z m 0,66.57704 v 16.75904 h -17.2182 v -16.75904 z"
       id="text3-7"
       style="font-weight:600;font-size:114.788px;font-family:FreeSans;-inkscape-font-specification:'FreeSans Semi-Bold';fill:#444652;stroke-width:45.1921;stroke-linecap:round;stroke-linejoin:round;paint-order:fill markers stroke"
       aria-label="Hello, World!" />
    <path
       style="fill:#444652;fill-opacity:1;stroke:#ffffff;stroke-width:39.7596;stroke-linecap:round;stroke-linejoin:round;stroke-dasharray:none;stroke-opacity:1;marker-start:url(#RoundedArrow);paint-order:fill markers stroke"
       d="M 1303.5972,566.92915 H 913.97774"
       id="path5" />
    <rect
       style="fill:#5cd34a;fill-opacity:1;stroke:#ffffff;stroke-width:88.955;stroke-linecap:round;stroke-linejoin:round;stroke-dasharray:none;stroke-opacity:0;paint-order:stroke fill markers"
       id="rect10"
       width="40.605301"
       height="42.409981"
       x="1651.2822"
       y="425.00217"
       rx="11.338583" />
    <rect
       style="fill:#ffc51e;fill-opacity:1;stroke:#ffffff;stroke-width:88.955;stroke-linecap:round;stroke-linejoin:round;stroke-dasharray:none;stroke-opacity:0;paint-order:stroke fill markers"
       id="rect10-6"
       width="40.605301"
       height="42.409981"
       x="1707.0598"
       y="425.00034"
       rx="11.338583" />
    <rect
       style="fill:#ff1e1e;fill-opacity:1;stroke:#ffffff;stroke-width:88.955;stroke-linecap:round;stroke-linejoin:round;stroke-dasharray:none;stroke-opacity:0;paint-order:stroke fill markers"
       id="rect10-6-1"
       width="40.605301"
       height="42.409981"
       x="1761.993"
       y="425.00034"
       rx="11.338583" />
  </g>
</svg>
